# xmcd
#
# Track frame offsets:
#	150
#	23336
#	44267
#	58695
#	76473
#	93119
#	115190
#	135232
#	153399
#	180128
#	196972
#	208867
#	229069
#	252196
#
# Disc length: 3601 seconds
#
# Revision: 4
# Processed by: cddbd v1.5.2PL0 Copyright (c) Steve Scherf et al.
# Submitted via: EasyCDDAExtractor 2010.6.0.0
#
DISCID=a40e0f0e
DTITLE=Various Artist - Emozioni In Musica-Tra Itaca E Panama
DYEAR=1997
DGENRE=Italiani
TTITLE0=Claudio Baglioni - Strada Facendo
TTITLE1=Ivan Graziani - Lugano Addio
TTITLE2=Marcella - Montagne Verdi
TTITLE3=Alberto Fortis - Il Duomo Di Notte
TTITLE4=Massimo Ranieri - Erba Di Casa Mia
TTITLE5=Massimo Bubola - Il Cielo D'irlanda
TTITLE6=Stradaperta - Maida Vale
TTITLE7=Lucio Dalla - Itaca
TTITLE8=Roberto Vecchioni - Hollywood Hollywood
TTITLE9=Francesco De Gregori - Cercando Un Altro Egitto
TTITLE10=I Giganti - Il Paese È In Festa
TTITLE11=Renato Zero - Il Carrozzone
TTITLE12=Ivano Fossati - Panama
TTITLE13=Vasco Rossi - Vado Al Massimo
EXTD=YEAR: 1997
EXTT0=
EXTT1=
EXTT2=
EXTT3=
EXTT4=
EXTT5=
EXTT6=
EXTT7=
EXTT8=
EXTT9=
EXTT10=
EXTT11=
EXTT12=
EXTT13=
PLAYORDER=
